<svg width="30" height="30" viewBox="0 0 49 49" fill="none" xmlns="http://www.w3.org/2000/svg">
<g id="&#240;&#159;&#166;&#134; icon &#34;heart&#34;">
<path id="Vector" d="M24.5 49C23.7935 49 23.1098 48.8984 22.54 48.6699C13.834 45.344 0 33.5383 0 16.0964C0 7.21036 6.44977 0 14.3809 0C18.2326 0 21.8335 1.67565 24.5 4.6715C27.1665 1.67565 30.7674 0 34.6191 0C42.5502 0 49 7.23575 49 16.0964C49 33.5637 35.166 45.344 26.46 48.6699C25.8902 48.8984 25.2065 49 24.5 49ZM14.3809 3.80829C8.34139 3.80829 3.4186 9.31761 3.4186 16.0964C3.4186 33.4368 18.3921 43.0845 23.6567 45.0902C24.067 45.2425 24.9558 45.2425 25.366 45.0902C30.6079 43.0845 45.6042 33.4622 45.6042 16.0964C45.6042 9.31761 40.6814 3.80829 34.6419 3.80829C31.1777 3.80829 27.9642 5.61088 25.8902 8.73368C25.2521 9.69844 23.7935 9.69844 23.1553 8.73368C21.0358 5.58549 17.8451 3.80829 14.3809 3.80829Z" fill="#5E17EB"/>
</g>
</svg>
