<svg width="30" height="33" viewBox="0 0 50 53" fill="none" xmlns="http://www.w3.org/2000/svg">
<g id="&#240;&#159;&#166;&#134; icon &#34;shopping cart&#34;">
<g id="Group">
<path id="Vector" d="M2 2H6.10602C8.65457 2 10.6604 4.2785 10.448 6.9L8.48937 31.302C8.159 35.2955 11.2031 38.7305 15.0731 38.7255H40.2047C43.6027 38.7255 46.576 35.8345 46.8356 32.331L48.1099 13.956C48.3931 9.889 45.4198 6.5815 41.4789 6.5815H11.0143" stroke="#5E17EB" stroke-width="3.67082" stroke-miterlimit="10" stroke-linecap="round" stroke-linejoin="round"/>
<path id="Vector_2" d="M35.6265 51C37.2557 51 38.5762 49.629 38.5762 47.9375C38.5762 46.246 37.2557 44.875 35.6265 44.875C33.9973 44.875 32.6768 46.246 32.6768 47.9375C32.6768 49.629 33.9973 51 35.6265 51Z" stroke="#5E17EB" stroke-width="3.67082" stroke-miterlimit="10" stroke-linecap="round" stroke-linejoin="round"/>
<path id="Vector_3" d="M16.7485 51C18.3776 51 19.6982 49.629 19.6982 47.9375C19.6982 46.246 18.3776 44.875 16.7485 44.875C15.1194 44.875 13.7988 46.246 13.7988 47.9375C13.7988 49.629 15.1194 51 16.7485 51Z" stroke="#5E17EB" stroke-width="3.67082" stroke-miterlimit="10" stroke-linecap="round" stroke-linejoin="round"/>
<path id="Vector_4" d="M18.5184 16.7H46.8357" stroke="#5E17EB" stroke-width="3.67082" stroke-miterlimit="10" stroke-linecap="round" stroke-linejoin="round"/>
</g>
</g>
</svg>
